<?xml version="1.0" encoding="UTF-8"?>
<svg id="Layer_2" xmlns="http://www.w3.org/2000/svg" version="1.1" viewBox="0 0 364.2 598.6">
  <!-- Generator: Adobe Illustrator 30.1.0, SVG Export Plug-In . SVG Version: 2.1.1 Build 136)  -->
  <defs>
  </defs>
  <g id="Layer_1-2">
    <g>
      <g id="_ebeae9ff">
        <path fill="#53389E" d="M145.8,129.6c3.2-2.2,7.8,1.1,7.9,4.6.5,4.4-5.7,8.4-9,4.7-3.2-2.5-2.4-7.4,1-9.3h.1Z"/>
        <path fill="#53389E" d="M213.8,129.6c3.5-2.5,8.9.3,8.8,4.5.5,4.4-4.9,7.7-8.6,5.3-3.9-1.9-4.3-7.9-.2-9.8h0Z"/>
      </g>
      <g id="_04dc6cff">
        <path fill="#04DC6C" d="M179.7.6c3.8-1.9,9,1.4,8.7,5.7.2,4.5-5.5,7.8-9.3,5.3-4.4-2.2-3.9-9.2.6-11h0Z"/>
        <path fill="#04DC6C" d="M141.9,125.8c4.6-2.1,9.8,1,13.6,3.6,4.5,3,3.6,9.7.4,13.4-3.9,5-12.2,5.1-16.4.5-4.4-5.1-3.5-13.9,2.4-17.5M145.8,129.6c-3.4,1.9-4.2,6.7-1,9.3,3.2,3.8,9.4-.3,9-4.7-.2-3.5-4.7-6.9-7.9-4.6h-.1Z"/>
        <path fill="#04DC6C" d="M214.8,125.8c4.4-1.7,9.7-.2,11.9,4.2,4.2,6.4-.8,15.7-8.2,16.4-6.3,1-12.6-4.7-12.1-11.1-.5-4.9,4.1-8.3,8.4-9.5M213.8,129.6c-4,1.9-3.6,8,.2,9.8,3.7,2.4,9.1-.9,8.6-5.3,0-4.3-5.4-7.1-8.8-4.5h0Z"/>
        <path fill="#04DC6C" d="M151.5,195.2c5.9,6.4,13.8,11.4,17.2,19.7,2.4,4.9,1.8,10.6-.5,15.4-3.3-7.2-8.9-12.9-14-18.9-4.2-4.4-2-10.8-2.7-16.2Z"/>
        <path fill="#04DC6C" d="M195.2,215.9c3.3-9,11.5-14.6,18.1-21.1-.5,5.7,1.7,12.6-3.2,17-5.3,5.4-9.4,11.7-14,17.6-1.6-4.3-2.6-9.1-.8-13.5h-.1Z"/>
        <path fill="#04DC6C" d="M182.1,220.9c3.6,5,6.5,10.6,9,16.2-3.2,6.3-6.1,12.8-9,19.2-2.2-6.7-5.5-12.9-8.7-19.2,2.8-5.5,5.9-10.8,8.7-16.2h0Z"/>
      </g>
      <path fill="#dbc3fd" d="M163.1,63.2c8.4-10.1,12.9-22.4,17.7-34.4,1.2,9.3.3,18.7.5,28-1.5,1.6-4,3.3-3.4,5.9.7,3.8,6.5,4.8,8.3,1.3,1.6-2.8-1-5.2-2.8-7,0-9.4-.6-18.8.4-28.1,4.7,12.1,9.6,24.3,17.8,34.5-4,5-5.5,11.5-8.2,17-7.5.2-15.1,0-22.6,0-1.5-6.1-3.8-12.1-7.6-17.2h-.1,0Z"/>
      <path fill="#dbc3fd" d="M100.5,69.2c8.9,15.4,25.8,23.7,42.8,26.9,8.2-5.1,17.4-8.4,26.9-10,.4-.9.7-1.9,1.1-2.8,7.5.2,14.9-.2,22.4-.2.2,1.1.4,2.2.6,3.3,9.7,1.2,19,4.7,27.5,9.4,16.7-2.7,33.4-11.5,42-26.6,2.9,16.2-3.2,34.8-17.7,43.5-.3.2-1,.5-1.4.7,5.4,8,9.5,17.1,10,26.9.1,6.1,2,11.9,4.7,17.3,2.5-10.7,1.3-21.9-2.2-32.3,31.6,5.7,62.5,14.5,93.1,24.1,1.8.6,4.2,1.4,3.6,3.7.2,90,.1,180.1.2,270.1.5,18.3-4.9,36.6-14.3,52.2-7.6,12.4-17.4,23.2-27.8,33.2-36.7,34.9-81.4,60.1-128.1,78.9-1.6.7-3.3-.2-4.8-.8-41.4-16.9-81.1-38.8-115-68.1-18.1-15.7-35.7-33.4-45.4-55.7-4.7-11.3-7.7-23.5-7.7-35.7-.1-92.2,0-184.4-.1-276.6,31.8-10.3,64-19.1,96.8-25.6-3.8,10.6-4.6,22.1-2.5,33.1,2.1-4.8,4.6-9.6,4.7-14.9.5-10.5,4.1-20.6,9.9-29.3-.6-.4-1.2-.9-1.7-1.4-13.6-9.6-20.1-27.1-17.4-43.3M213.3,106.2c-12.7,3.7-24.9,11-31.3,23-5.2-9.8-14.2-17.1-24.5-21-16.6-6.3-35.7-7.7-49.3-20.2,2.9,7.3,8.7,13.1,15.2,17.3,13.6,8.5,30.9,9.9,43.2,20.8,7.5,5.8,11.7,14.4,15.6,22.8,3.4-6.9,6.3-14.2,12.1-19.6,10.3-10.7,25.3-13.8,38.5-19.5,10.1-4.1,19.3-11.8,23.3-22.1-11.7,11.2-27.9,14.1-42.9,18.5M227.5,121.8c9.8,7.7,8.5,25.1-3.5,30-11.6,5.3-24.9-4.8-24.7-17.1-2.1,2.3-5.3,4.3-5.7,7.6,1.5,11.4,12.4,20.5,23.9,20.4,11.2.3,22.2-7.5,24.9-18.6,2.9-9.1-.6-18.9-7-25.6-2.6,1.1-5.2,2.2-7.8,3.3M122.3,144.4c3.1,11.9,16.1,20.1,28.2,18.1,10.5-1.3,19.8-10.5,20.3-21.1-1.5-2.8-3.8-4.9-5.9-7.2-.1,5.2-1.3,10.6-5.3,14.2-6.8,7.1-19.7,6.4-25.5-1.6-5.9-7.4-3.9-18.8,3-24.9-2.7-1-5.3-2-7.9-3.2-6.9,6.4-9.6,16.7-6.8,25.7M141.9,125.8c-5.9,3.6-6.9,12.4-2.4,17.5,4.2,4.6,12.5,4.6,16.4-.5,3.2-3.7,4.1-10.4-.4-13.4-3.8-2.6-9-5.7-13.6-3.6M214.8,125.8c-4.2,1.2-8.8,4.5-8.4,9.5-.6,6.4,5.8,12.1,12.1,11.1,7.4-.7,12.4-10.1,8.2-16.4-2.2-4.4-7.5-5.9-11.9-4.2M63.8,157.1c5.9,16.9,22.1,26.9,36,36.7,16.3,11,32.5,22.7,45.7,37.4,18.6,20.1,29.9,45.9,35.7,72.4-.9-14.6-3.1-29.3-8-43.2-9.1-25.8-26.5-48.1-47.3-65.6-11.4-10.4-24.3-19-35.6-29.4-6.7-5.9-11.9-13.5-14.2-22.2-4.5,4.3-8.7,8.9-12.3,14M259.7,177.6c-21.2,16.6-42.3,34.4-56.2,57.8-12.5,19.8-19,43.1-19.7,66.4,4.2-18.3,10.8-36.2,21.1-52,14.1-21.9,34.3-39,56-53.1,15.2-10.8,33.2-20.9,39.9-39.4-3.8-5.1-7.9-9.8-12.6-14.1-3.7,15.2-17,24.8-28.5,34.2M171.7,165.6c3.6,6.8,7.6,13.3,10.7,20.3,2.9-6.8,6.9-13.1,10.1-19.8-2.5-5.1-6.2-10-10.1-14.3-4.2,4.1-7.2,9.2-10.7,13.8M115.2,174.8c-1.6-7.2-2.4-14.8-.6-22.1-5.2,6.3-6.7,16.8.6,22.1M250.2,152.9c1.5,7.2.7,14.5-.8,21.6,7.3-5,5.7-15.5.8-21.6M124.9,180.9c3.1,6.3,10.1,9.3,16.2,11.9-8.2-7.9-16.6-17.1-17.2-29.1-2.1,5.5-1.4,11.8,1,17.1M223.6,192.8c4.9-1.8,9.6-4.2,13.3-8,4.9-5.6,5.9-13.8,4.2-20.9-1.3,11.8-9.2,21-17.5,28.8M45.4,167.1c-2.1,7.6-2.9,16.1.9,23.3,4.5,8.6,13,14.3,21.5,18.4,15.5,7.6,31.3,14.8,45.8,24.2,27.6,17.2,49.1,43.1,63.2,72.3-8.4-30.7-24.4-59.9-48.8-80.7-14.3-12.2-30.6-21.8-47-30.9-12.9-7.4-26.5-14.7-35.7-26.6M281,194.9c-22.5,12.6-44.7,26.7-61.3,46.8-15,18.3-25.8,40-31.7,62.9,6.7-13,14.2-25.7,23.7-37,18.7-23.5,44.9-39.6,71.8-52.3,11.4-6.1,24.8-10.4,32.7-21.3,6-7.5,6.2-17.9,2.6-26.5-9.7,12.5-24.4,19.5-37.7,27.4M133,171.4c6.1,3.9,11.2,8.9,16.6,13.7,8,5.4,15.3,11.8,21,19.6-5.6-16.9-20.1-29.9-37.6-33.3M182.2,202.8c-4.5-12.7-11.9-25.9-25.3-30.6,11,10.7,20.6,23.4,25.1,38.2,5.2-14.7,14.8-27.6,25.8-38.4-13.6,4.8-20.7,18.3-25.6,30.9M193.9,204.1c4.5-5.3,8.9-10.8,14.8-14.7,7.8-5.1,13.7-12.5,21.5-17.8-16.8,3.3-31.2,16.1-36.3,32.4M151.5,195.2c.7,5.4-1.5,11.8,2.7,16.2,5.1,6,10.7,11.7,14,18.9,2.3-4.8,2.9-10.5.5-15.4-3.5-8.3-11.3-13.4-17.2-19.7M195.2,215.9c-1.8,4.4-.8,9.2.8,13.5,4.6-5.9,8.8-12.2,14-17.6,4.9-4.3,2.7-11.3,3.2-17-6.5,6.5-14.7,12.1-18.1,21.1M28.4,202.1c-1.9,12.2,3.9,27.1,17,30,40.3,10.6,80.4,26.9,110.7,56.4,5.9,5.4,10.5,12.1,16.2,17.7-15.6-27.6-38.8-50.9-66.6-66.3-13.8-8-28.6-13.8-43.5-19.5-11.9-4.8-24.5-9.1-33.8-18.3M279.6,229.4c-35.9,15-67.6,41-86.5,75.4,15.6-18.6,34.6-34.4,56-46,22.7-12.8,47.8-20.2,72.6-27.4,11.5-3.8,16.3-17.4,14.2-28.6-16.3,13.4-37.7,17.6-56.4,26.6M182.1,220.9c-2.8,5.5-5.9,10.8-8.7,16.2,3.1,6.3,6.5,12.5,8.7,19.2,2.9-6.5,5.8-12.9,9-19.2-2.5-5.6-5.4-11.2-9-16.2M43.8,239.1c-2.4,5.2-6.6,9.3-11.4,12.4,48.8,7.4,98.2,23.3,135.6,56.8-32-36.4-77.5-58.2-124.2-69.1M239.8,271.6c-16.9,10.5-31.8,23.9-45,38.6,8.5-7.1,16.7-14.8,26.2-20.6,33.6-21,72.5-32,111.3-38.1-4.8-3.3-8.9-7.4-11.9-12.4-28.1,7.2-56,16.8-80.6,32.5M42.7,259.8c-3,5.9-7.8,10.5-13.2,14.1,42.2,10.5,85.4,18.4,125.6,35.6-24.1-15.5-52.2-23.1-78.8-33,26.4,4.1,52.4,12.4,75.2,26.5,3,1.9,6,3.9,9.4,5.4-33.8-27-76.2-40.4-118.1-48.7M217,298.8c-1.7,1.1-3.4,2.4-4.7,4,23-13.2,48.5-22.1,74.8-25.9-25.4,9.4-52.3,16.5-75.2,31.5,21.8-9.1,44.7-15.4,67.7-20.8,18.6-4.5,37.2-9.4,55.9-13.4-5.7-3.6-10.5-8.3-13.6-14.3-36.6,7.4-73.6,17.9-104.8,39M19.4,279.8c0,2.2-1.1,6,2.1,6.4,40.7,10.6,81,22.3,121.6,33.3,2.6.9,6.4,1,6.9,4.4,4,12.2,15.5,21.4,28.3,22.6,14.7,2.1,30-6.8,35.2-20.8.8-1.8.9-4.5,3.3-4.8,42.2-11.5,84.3-23.4,126.6-34.5,3.2-.4,1.8-4.1,1.7-6.2-45.4,11.2-90.5,24.3-135.6,36.8-1.3,12.7-12.6,22.8-25.2,23.5-13.9,1.5-28.7-9.1-29.4-23.6-45.2-12.3-90.1-25.9-135.7-36.9M34.8,301.4c13.3,22.7,25.9,45.9,38.7,68.8,10.2,5,20.7,9.3,31,14.2-15.5,16.6-26.9,38.3-27.9,61.3,7.5-34.9,32-65.9,65.1-79.5-8.6,1.6-16.6,5.5-24.3,9.6-11-4.6-21.9-9.8-32.7-14.9-1.6-.6-2.8-1.9-3.6-3.4-9.2-16.6-18.1-33.4-27-50-6.1-2.8-12.9-4-19.3-6.1M310.6,307.5c-9.3,17-18.3,34.3-27.8,51.2-.8,1.6-2.6,2.2-4,2.9-10.5,4.7-20.9,9.5-31.4,14.2-7.2-3.6-14.5-7.5-22.5-8.9,32.1,14.7,56.2,45.1,63.3,79.7-.3-23.4-12-45.4-27.9-62.1,8.7-4.1,17.5-8.2,26.3-12.1,2.1-1.1,4.6-1.9,5.8-4.1,12.3-22.3,24.4-44.8,37.2-66.9-6.3,2-13.3,2.9-19,6M161.8,320c5.1,18.5,35.2,18.4,40.8.1-10.5,12-30.4,11.7-40.8-.1M176.8,371.9c-14.3.8-28.5,4.9-40.9,12-29.9,16-49.4,49.5-48.3,83.4,0,24,10.2,47.7,27.1,64.7,18.9,20.7,48,31,75.7,28.3,30.5-1.7,58.9-20.5,74.1-46.8,18-31.3,16.7-73.2-5.1-102.3-18.4-26.2-50.7-41.6-82.6-39.3M42.3,429c3.9,17,16.6,31.2,32.8,37.3,0-3.7,0-7.4.2-11-14.3-3.4-25.6-14-33-26.3M289.5,455.6c0,3.6.1,7.2.2,10.8,15.5-6.3,28.8-19.4,32.2-36.3-7.5,11.8-18.6,21.9-32.4,25.4h0q0,.1,0,.1Z"/>
      <path fill="#dbc3fd" d="M172.7,378.5c28.6-3.3,58.4,8.4,76.9,30.4,22,25.4,27.5,63.9,12.8,94.1-13.7,31.1-47.2,52-81,51.2-31.4-.2-62.2-18.5-76.8-46.4-13.7-24.7-14.1-55.9-1.5-81,12.8-26.7,40.4-45,69.6-48.3M147.3,400.5c-6.5-.9-14,.9-17.7,6.8-2.8,3.2-1.8,9.2-6.5,10.6-8.6,3.8-12.2,14.6-9.3,23.2,1.8-.7,3.6-1.3,5.5-2-2.7-8.9,4.4-17,13-18.4.5-3.6.4-7.7,3-10.6,3.6-4.6,11.9-5.2,15,.2,0,1.6-.9,3.5.3,4.8,3,2.1,7.6-1.8,6.2-5.2-1-2.8-3.1-5-5-7.2,2.9-3.6,6.4-8,11.6-7.6,5.8,0,10,5.6,10.2,11.1.7,12.7-11.5,24.7-24.3,23.1-6.1-.5-11.5-5-17.8-3.7-4,.7-7.8,4.5-6.5,8.8,4.1-4,9.9-4,14.8-1.7,12.4,5.5,28.1.8,35.2-10.8,6-9,7.1-23.8-3.1-30.3-8.7-6.2-21.7-1.3-24.7,8.8M196.7,389.6c-7.5,2.1-11.7,10.2-11.2,17.6-.2,14.1,11.8,26.7,25.7,27.7,10,1.6,19.6-8,29.1-1.3.7-6.1-6.5-9.1-11.6-8-6.3,1.5-12.5,5.1-19.1,3.3-12.5-2.3-23-17.6-16.1-29.5,4.9-7.4,15.7-4.2,19.1,3-2.1,2.8-4.8,5.7-4.8,9.4.4,3,3.7,4.2,6.4,3.6-1.3-5.4,3.7-10.6,9.1-9,6.6,1.3,9,8.4,9.2,14.3,8.9,1.1,15.1,9.8,12.9,18.6,1.8.9,3.6,1.8,5.4,2.7,3.7-10.6-2.2-21.7-12-26.3-2.4-9.5-10.9-17.4-21.2-15.4-3-8.2-12.4-13.4-20.9-10.7M158.7,404.1c8.8,7.1-2.9,19-11.4,15.3-3.8-1-4.6-5.1-5.8-8.3-6,1.7-4.8,10.7.7,12.2,10.7,6.4,25.9-1.7,26.1-14.2.7-5.1-6-10.5-9.6-5.1M196.4,409.2c.6,12.9,16.8,20.6,27.4,13.4,4.8-2.3,4.9-11.4-1.5-10.9-.6,2.8-1,6.3-4.1,7.5-6.6,2.7-15-2.9-15.9-9.8,1.2-2.1,3-3.8,3.6-6.2-4.2-4.4-10.3,1-9.5,6M170.2,432.4c1.8,3.7,4.5,7.4,3.9,11.8-.5,4.6-3.8,8.2-6.5,11.8,4.4,3.5,5.3,9.7,10.5,12.3.2-4.3.5-8.9-2.4-12.4,5.1-8.3,5.2-19.5-1.6-26.8-1.3,1.1-2.6,2.2-4,3.3M188.8,455.2c-2.2,4.1-2.7,8.7-1.8,13.2,4.6-3.2,6.2-8.7,10.2-12.4-.6-3.3-4.8-5.5-5.7-9.1-2.1-5.2.5-10.5,3.6-14.7-1.5-1.2-3.1-2.5-4.7-3.7-6.5,7.4-6.5,18.3-1.7,26.6M131.9,434.4c-.5,1.6-1,3.2-1.5,4.8-7.3,2.7-15.9,3.3-21.2,9.7-8.3,8.5-7.7,23,.6,31.4,1.3-1.9,2.4-3.9,3.4-6-6.1-6.1-5.3-16.6,1.2-22.1,6.2-6.8,19.6-2.9,22.7-13.2,1.6-3.6-2.6-4.5-5.2-4.7M227.2,436.1c-.4,7.2,6.6,11.1,12.9,11.3,12,1.5,21.6,17.7,11.7,27.2.9,1.9,1.9,3.7,2.8,5.6,6.7-5.2,9.4-14.7,6.3-22.6-3.4-9.7-13.3-15.3-23-16.9-3.4-.1-4.2-3.5-5.2-6.1-1.9.3-3.8.8-5.6,1.5M162.7,436.5c3.4,3.7,1.1,12.4-4.9,9.1.2-1.8.4-3.5.6-5.2-4.2-2.6-7.8,1.7-11.1,3.8-.5-1.8-1-3.7-1.5-5.5-1.4,0-2.7-.2-4.1-.3,1.2,6.3-2.1,11.5-8.2,13.2,2.4,5.2,9.2,2.5,13.6,4.7v-6.1c3-1.3,5.9-2.9,8.6-4.8-.9,3.2.7,7.9,4.7,7.2,8.4-.4,12.6-12.3,6.1-17.8-1.3.6-2.5,1.2-3.8,1.7M204.4,452.6c3.7,0,4.8-4,5.6-6.9,2.6,1.6,5.2,3,7.9,4.4-.1,1.9-1,3.9-.3,5.8,2.6,1.5,4.9-1.6,7.7-1.4,2.1,0,5.6-.3,5.1-3.3-1.9-2.2-6.1-2-6.8-5.4-.7-2.7-.9-5.4-1.2-8.2-1.2.3-2.4.6-3.6.9-.4,1.9-.8,3.7-1.2,5.6-3.3-2-6.5-5.7-10.7-4.5-2,1.6-1.1,4.5-1.5,6.7-5.6.7-6-6.5-3.7-10.1-1.1-.5-2.2-1-3.2-1.5-6.5,5.5-2.3,17.4,6,17.9M119.5,453.5c3,6.2,7.8,12.4,14.9,13.8,10.1,3.4,21-7.8,30.1.7,1.3-1.5,2.5-3,3.6-4.6-5.7-3.4-11.1-7.2-16.8-10.3.1,1.9.5,3.8,1,5.6-5.8,1.3-11.8,4.9-17.7,2.4-4.6-1.7-7.5-5.7-9.8-9.8-1.9.5-3.7,1.3-5.4,2.2M239.5,451.2c-2.4,4.2-5.3,8.8-10.3,10-5.9,2-11.7-.9-17.1-3,1.1-2.2,1.4-7-2.1-4.2-3.5,4.2-8.6,6.1-13,9.2,1,1.5,2.1,2.9,3.2,4.3,3.8-1.8,8-4.7,12.3-2.6,6.4,2.5,13.7,4.7,20.4,1.8,5.8-2.4,9.4-7.9,12.8-12.9-2-1-4.1-1.8-6.2-2.6M241.8,470.4c-1,9.7,10.5,15.8,8.4,25.6-1.1,7-10.2,12.8-16.2,7.7-3.4-3.2-.4-7.5,2.1-10.1-.6-.8-1.3-1.6-1.9-2.4-8-.3-9.4,11.1-4.4,15.7,3.5,4.8,10,4.7,15.2,3.7,7.5-2.4,11.5-10.8,11.1-18.3-.4-6.2-4.9-10.9-7.3-16.4-1.9-4-.6-8.5-.3-12.7-4.4-2.1-6.6,3.8-6.6,7.2M117.6,464.5c2.9,11.4-9.8,18.7-8,29.8-1.3,10.2,9.7,20,19.6,16.6,6.2-1.7,10.6-9.2,7.8-15.3-1.3-3.1-6.1-5.7-8.2-1.8,1.4,1.8,2.8,3.7,4.1,5.5-1.2,5.9-8.4,8.2-13,4.5-7.1-4.7-6.1-15.2-1.3-21.2,4.1-5.2,7.1-14.4.7-19-.4.2-1.3.7-1.7.9M167.4,470.9c4.3,3.9,8.6,10.3,3.9,15.6,1.5,1.8,3.1,3.5,4.8,5.1,5-8.3,3.8-20.2-5.6-24.9-1,1.4-2.1,2.8-3.1,4.2M188.8,491.4c1.5-1.4,3-2.9,4.5-4.3-3.6-5.9-.5-12.2,4.5-16.1-1.1-1.4-2.1-2.8-3.2-4.1-9.2,4.4-10.8,16.2-5.8,24.5M151.6,469.5c-4.1,2.1-8.8,2.3-13.4,2.9,1.4,2.9,5.3,2.2,7.8,3.2,3.9.5,6.9,4.4,11.1,3.4,2.4-1.5,4.3-3.8,6.3-5.8-3-3-7.6-5.9-11.9-3.6M127.1,469.5v6.4c2.6-.9,5.1-1.9,7.5-3.1-2.4-1.2-4.9-2.2-7.4-3.3M203.2,471.5c1.8,3.4,2.3,8.8,7.5,7.7.3-.7.8-2.1,1-2.8,4.8-1.2,11.5.5,14.9-3.7-4.6-.8-9.5-.3-13.7-2.8-3.2-1.9-7-.7-9.7,1.6M231.4,474c2.2.8,4.4,1.3,6.6,1.9-.2-2-.5-4-.7-6-1.8,1.4-5.8,1.3-5.9,4.1M120,489.6c-1.8,5.1,1.2,12.6,7.6,11.2-.9-3.2-3.7-6.1-2.6-9.7,2.4-4.4,7.5-6.8,12.4-7.3,5.3-.6,8.9,4.5,14,4.8,4.2.2,9,1,12.6-1.8,2.9-2,6.8-5.9,3.4-9.3-3.3,2.7-6.6,6-11.1,6.4-6.2-.7-11.2-5.5-17.5-6.1-8-1.2-16.2,4.3-19,11.8M195.5,481.2c3.6,8.8,14.2,8.2,22,7.5,1.4,2.6,2.7,5.2,4,7.9,1.7-2.4,3.2-4.8,4.7-7.4-2-.7-4-1.4-6-2.1,5.8-5.5,15.8-2.5,19.5,4,1.5,3.3-1.3,6.4-2.5,9.3,4.1,1.6,8.4-1.9,8.4-6.2.3-9.5-9.2-16.9-18.4-16-5.8-.1-10.6,3.7-16,5.3-5.1,1.1-9.4-2.8-13.2-5.6-.9,1-1.8,2.1-2.6,3.1M137.7,489c2.1,2.4,3.6,5.2,5.4,7.9,1.4-2.5,2.6-5.1,3.8-7.8-3.1-.4-6.1-.5-9.2-.1M162.4,492.9c4.7,2.5,8.7,6.4,10.5,11.4-1.4,3-3.3,5.8-5.6,8.2,1,1.3,2,2.6,2.9,3.9,4.2-3.5,8.3-8.3,7.8-14.1-.9-5.8-5.8-10-10.4-13.2-1.8,1.3-3.5,2.5-5.3,3.8M187.1,505.8c.7,4.7,4.4,8,7.7,11,1.1-1.7,2.1-3.4,3.2-5.2-2.4-2.3-5.9-4.6-5.9-8.3,1.5-4.9,5.8-7.8,9.6-10.9-1.5-1.1-3-2.2-4.5-3.3-5.6,3.4-11.5,9.5-10,16.6M151.3,493.2c-.9,1.9-1.5,4-1.8,6-2.4,1-4.9,1.8-7.5,2.5-.4,2.5-.9,5-1.5,7.4-1.4.8-2.8,1.7-4.1,2.5,1.1,3.4,2.6,8.9,7.4,6.9.2-3.5-.6-7.3,1.9-10.1,5-6,15.4-6.1,19.9.6,2-1.6,3.9-4.4,1.6-6.7-3-5.3-12.4-2-12.9-9.1-.7,0-2.2,0-3-.1M211.1,493.5c-.6,1.2-1.1,2.5-1.6,3.7-4.9.8-10.4,2.4-12.9,7.1.1,1.7,1.6,2.8,2.6,4,4.9-5.9,14.5-6.4,19.8-.8,2.9,3,2.2,7.3,1.9,11.1,4.7,1.4,6.7-3.2,7.5-7-4.2-1.6-5.5-5.8-5.7-9.9-4.9-.5-8.7-3.1-8.4-8.5-1.1,0-2.2.2-3.3.2M148.6,516.2c4.8-2.1,11.1-1.9,13.3,3.6,3.2,3.9-3.8,6.9-1.8,10.7,4.4,2,8-3.1,7.7-7.1-.6-5.4-3.8-10.5-8.4-13.2-4.5-2.5-11.7,0-10.8,6M198.7,529c1.3,2.8,4.5,1.8,6.8,1-.5-2.6-1.9-4.9-3.4-7,.8-6.5,8-11.1,13.3-5.8,1-3,.5-6.9-3.1-7.7-10.2-2.7-17.9,11.2-13.6,19.6M125.4,515c1.1,5.6,4.3,11.1,9.6,13.7,8,4.7,19.2.7,23.4-7.4-3.6-6.8-7.5,2.2-12,3-7.2,2.2-13.7-3.3-16-9.8-1.7.2-3.3.4-4.9.5M234.1,514.5c-2,9.2-14.8,14.1-21.2,6.2-1.9-3.1-5.2-2.7-6.7.5,3.4,5.8,9.9,10.4,16.9,9.5,8.3-.5,15.4-7.6,16.2-15.8-1.8,0-3.6-.3-5.3-.4M172.6,519.7c2.6,6.1.5,14.7-6.4,16.8-5.4,1.9-10.8-1.5-13.7-5.9-1.4.6-2.8,1.3-4.2,1.9,2.9,8.3,12.6,13.1,20.8,9.4,10.3-4.2,12.2-17.7,7.9-26.8-1.5,1.5-3,3.1-4.4,4.6M187.6,515c-2.5,7.4-3.1,16.5,2.2,22.8,6.9,9.1,24.1,6.2,26.7-5.3-1.5-.7-3-1.5-4.6-2.2-2.8,5.3-9.5,8.7-15.1,5.6-5.8-3.2-6.8-10.7-4.5-16.4-1.6-1.5-3.1-3-4.7-4.5h0Z"/>
      <g id="_eacf8cff">
        <path fill="#7F56D9" d="M213.3,106.2c14.9-4.4,31.2-7.3,42.9-18.5-4.1,10.4-13.2,18-23.3,22.1-13.2,5.7-28.2,8.8-38.5,19.5-5.8,5.3-8.7,12.7-12.1,19.6-3.9-8.4-8.1-17-15.6-22.8-12.3-10.9-29.5-12.3-43.2-20.8-6.5-4.2-12.3-10-15.2-17.3,13.6,12.6,32.7,13.9,49.3,20.2,10.3,3.9,19.3,11.2,24.5,21,6.4-12,18.6-19.3,31.3-23,0,0-.1,0-.1,0Z"/>
        <path fill="#7F56D9" d="M117.8,112.6c.6.4,1.1.9,1.7,1.4-5.9,8.6-9.5,18.8-9.9,29.3,0,5.4-2.6,10.1-4.7,14.9-2.1-11.1-1.3-22.5,2.5-33.1-32.8,6.5-65,15.3-96.8,25.6,0,92.2,0,184.4.1,276.6,0,12.3,3,24.4,7.7,35.7,9.7,22.3,27.2,40,45.4,55.7,33.9,29.3,73.7,51.2,115,68.1,1.5.5,3.2,1.4,4.8.8,46.7-18.9,91.4-44.1,128.1-78.9,10.4-10,20.2-20.8,27.8-33.2,9.4-15.6,14.8-33.9,14.3-52.2-.1-90,0-180-.2-270.1.6-2.4-1.8-3.2-3.6-3.7-30.6-9.6-61.5-18.4-93.1-24.1,3.5,10.4,4.7,21.5,2.2,32.3-2.7-5.4-4.6-11.2-4.7-17.3-.4-9.8-4.5-18.9-10-26.9.3-.2,1-.5,1.4-.7,40,7.2,79.4,18.2,118,30.8.3,89.2,0,178.5.1,267.7,1,18.8-.8,38-8.3,55.4-13.7,31.4-40.1,54.9-66.9,75.1-30.6,23.5-65.4,40.8-101,55.2-2.6.9-5.4,2.5-8.2,1.2-46-17.9-90.1-42.2-127.1-75.2-13.2-12.2-26.1-25.1-35.6-40.5C5.9,465.1,0,444.6,0,424.1c.2-93.5-.3-187.1.2-280.6,38.5-12.5,77.7-22.6,117.3-31h.3,0Z"/>
        <path fill="#7F56D9" d="M227.5,121.8c2.6-1.1,5.2-2.2,7.8-3.3,6.4,6.7,9.9,16.5,7,25.6-2.7,11-13.7,18.9-24.9,18.6-11.5,0-22.3-9-23.9-20.4.4-3.3,3.7-5.3,5.7-7.6-.2,12.3,13.1,22.4,24.7,17.1,11.9-4.8,13.2-22.2,3.5-30h.1,0Z"/>
        <path fill="#7F56D9" d="M122.3,144.4c-2.8-8.9,0-19.3,6.8-25.7,2.6,1.2,5.2,2.2,7.9,3.2-7,6.1-9,17.4-3,24.9,5.9,8,18.7,8.7,25.5,1.6,4-3.6,5.2-9.1,5.3-14.2,2.1,2.3,4.4,4.4,5.9,7.2-.5,10.6-9.8,19.9-20.3,21.1-12.1,2.1-25.1-6.1-28.2-18.1h.1Z"/>
        <path fill="#7F56D9" d="M63.8,157.1c3.6-5.1,7.8-9.7,12.3-14,2.4,8.7,7.6,16.3,14.2,22.2,11.3,10.5,24.2,19,35.6,29.4,20.8,17.6,38.2,39.8,47.3,65.6,4.8,13.9,7.1,28.6,8,43.2-5.8-26.5-17.1-52.3-35.7-72.4-13.2-14.7-29.3-26.4-45.7-37.4-14-9.8-30.1-19.7-36-36.7h0q0,.1,0,0Z"/>
        <path fill="#7F56D9" d="M259.7,177.6c11.4-9.4,24.8-19,28.5-34.2,4.6,4.3,8.8,9,12.6,14.1-6.7,18.5-24.7,28.6-39.9,39.4-21.6,14.1-41.9,31.2-56,53.1-10.3,15.8-16.9,33.6-21.1,52,.8-23.3,7.3-46.6,19.7-66.4,13.8-23.4,35-41.2,56.2-57.8v-.2h0Z"/>
        <path fill="#7F56D9" d="M171.7,165.6c3.6-4.6,6.6-9.7,10.7-13.8,3.9,4.3,7.6,9.1,10.1,14.3-3.2,6.6-7.2,13-10.1,19.8-3.1-7-7.1-13.5-10.7-20.3h0Z"/>
        <path fill="#7F56D9" d="M115.2,174.8c-7.3-5.4-5.7-15.9-.6-22.1-1.9,7.3-1.1,14.9.6,22.1Z"/>
        <path fill="#7F56D9" d="M250.2,152.9c4.9,6.2,6.5,16.6-.8,21.6,1.5-7.1,2.3-14.4.8-21.6Z"/>
        <path fill="#7F56D9" d="M124.9,180.9c-2.4-5.3-3.1-11.6-1-17.1.7,12,9,21.2,17.2,29.1-6.1-2.7-13.1-5.6-16.2-11.9,0,0,0-.1,0-.1Z"/>
        <path fill="#7F56D9" d="M223.6,192.8c8.2-7.9,16.2-17,17.5-28.8,1.7,7.1.7,15.2-4.2,20.9-3.7,3.7-8.4,6.2-13.3,8h0q0-.1,0,0Z"/>
        <path fill="#7F56D9" d="M45.4,167.1c9.2,12,22.8,19.2,35.7,26.6,16.4,9.1,32.7,18.7,47,30.9,24.4,20.8,40.4,50,48.8,80.7-14.1-29.2-35.6-55-63.2-72.3-14.5-9.4-30.3-16.7-45.8-24.2-8.6-4.2-17-9.8-21.5-18.4-3.8-7.2-3-15.7-.9-23.3h-.1Z"/>
        <path fill="#7F56D9" d="M281,194.9c13.3-7.9,28-14.9,37.7-27.4,3.6,8.6,3.4,19-2.6,26.5-7.9,10.9-21.3,15.2-32.7,21.3-26.9,12.7-53.1,28.8-71.8,52.3-9.4,11.3-17,23.9-23.7,37,6-22.8,16.7-44.6,31.7-62.9,16.6-20.1,38.8-34.2,61.3-46.8h.1Z"/>
        <path fill="#7F56D9" d="M133,171.4c17.5,3.5,32,16.5,37.6,33.3-5.7-7.9-13-14.3-21-19.6-5.4-4.8-10.5-9.8-16.6-13.7h0Z"/>
        <path fill="#7F56D9" d="M182.2,202.8c4.9-12.6,12-26.1,25.6-30.9-11,10.9-20.6,23.7-25.8,38.4-4.5-14.8-14.1-27.5-25.1-38.2,13.4,4.8,20.8,17.9,25.3,30.6h0q0,.1,0,0Z"/>
        <path fill="#7F56D9" d="M193.9,204.1c5.1-16.4,19.5-29.1,36.3-32.4-7.8,5.2-13.7,12.6-21.5,17.8-5.9,3.9-10.2,9.4-14.8,14.7h0Z"/>
        <path fill="#7F56D9" d="M28.4,202.1c9.3,9.2,21.9,13.6,33.8,18.3,14.8,5.6,29.7,11.4,43.5,19.5,27.7,15.4,50.9,38.7,66.6,66.3-5.7-5.6-10.3-12.3-16.2-17.7-30.2-29.5-70.4-45.8-110.7-56.4-13.1-2.9-18.9-17.8-17-30Z"/>
        <path fill="#7F56D9" d="M279.6,229.4c18.7-9,40.1-13.2,56.4-26.6,2,11.2-2.7,24.8-14.2,28.6-24.9,7.2-50,14.6-72.6,27.4-21.4,11.6-40.3,27.4-56,46,18.8-34.4,50.6-60.4,86.5-75.4h-.1,0Z"/>
        <path fill="#7F56D9" d="M43.8,239.1c46.7,10.9,92.2,32.7,124.2,69.1-37.4-33.4-86.8-49.4-135.6-56.8,4.8-3.1,9-7.1,11.4-12.4h0q0,.1,0,0Z"/>
        <path fill="#7F56D9" d="M239.8,271.6c24.6-15.7,52.5-25.2,80.6-32.5,3,5,7.1,9.1,11.9,12.4-38.9,6.1-77.8,17-111.3,38.1-9.5,5.8-17.6,13.5-26.2,20.6,13.2-14.8,28.2-28.1,45-38.6h0Z"/>
        <path fill="#7F56D9" d="M42.7,259.8c41.9,8.3,84.3,21.7,118.1,48.7-3.3-1.5-6.3-3.5-9.4-5.4-22.8-14.1-48.8-22.5-75.2-26.5,26.6,9.9,54.7,17.5,78.8,33-40.1-17.2-83.4-25.1-125.6-35.6,5.4-3.6,10.2-8.2,13.2-14.1h0q0-.1,0-.1Z"/>
        <path fill="#7F56D9" d="M217,298.8c31.2-21.1,68.2-31.6,104.8-39,3.1,6,8,10.8,13.6,14.3-18.7,4.1-37.3,8.9-55.9,13.4-23,5.4-45.9,11.7-67.7,20.8,22.9-15,49.8-22.1,75.2-31.5-26.3,3.8-51.7,12.8-74.8,25.9,1.3-1.6,3-2.8,4.7-4h.1q0,.1,0,.1Z"/>
        <path fill="#7F56D9" d="M19.4,279.8c45.5,11.1,90.5,24.6,135.7,36.9.7,14.5,15.5,25.1,29.4,23.6,12.6-.7,23.9-10.8,25.2-23.5,45.1-12.5,90.1-25.6,135.6-36.8,0,2.1,1.4,5.8-1.7,6.2-42.3,11.2-84.4,23-126.6,34.5-2.4.3-2.5,3-3.3,4.8-5.2,13.9-20.5,22.9-35.2,20.8-12.8-1.1-24.4-10.4-28.3-22.6-.6-3.4-4.4-3.5-6.9-4.4-40.6-10.9-80.9-22.6-121.6-33.3-3.2-.4-2.1-4.2-2.1-6.4l-.2.2h0Z"/>
        <path fill="#7F56D9" d="M34.8,301.4c6.4,2.1,13.2,3.3,19.3,6.1,9,16.7,17.9,33.5,27,50,.8,1.5,2,2.8,3.6,3.4,10.9,5.1,21.7,10.2,32.7,14.9,7.7-4.2,15.7-8,24.3-9.6-33.2,13.6-57.6,44.7-65.1,79.5,1-23,12.3-44.7,27.9-61.3-10.2-4.9-20.8-9.2-31-14.2-12.8-22.9-25.4-46.1-38.7-68.8h0Z"/>
        <path fill="#7F56D9" d="M310.6,307.5c5.7-3.1,12.7-4,19-6-12.8,22.1-24.9,44.6-37.2,66.9-1.1,2.2-3.7,3-5.8,4.1-8.8,4-17.6,8-26.3,12.1,15.9,16.7,27.5,38.6,27.9,62.1-7-34.6-31.2-65-63.3-79.7,8,1.4,15.3,5.3,22.5,8.9,10.5-4.7,20.9-9.5,31.4-14.2,1.5-.8,3.3-1.4,4-2.9,9.5-16.9,18.5-34.2,27.8-51.2h0q0-.1,0,0Z"/>
        <path fill="#7F56D9" d="M161.8,320c10.5,11.8,30.4,12.1,40.8.1-5.6,18.2-35.8,18.4-40.8-.1h0Z"/>
        <path fill="#7F56D9" d="M176.8,371.9c31.9-2.3,64.3,13.1,82.6,39.3,21.8,29.1,23.1,71,5.1,102.3-15.2,26.3-43.6,45.1-74.1,46.8-27.7,2.7-56.8-7.7-75.7-28.3-17-17-27.1-40.6-27.1-64.7-1.1-33.9,18.4-67.4,48.3-83.4,12.5-7.1,26.6-11.2,40.9-12M172.7,378.5c-29.2,3.3-56.8,21.6-69.6,48.3-12.6,25.2-12.2,56.4,1.5,81,14.6,28,45.4,46.2,76.8,46.4,33.9.7,67.3-20.2,81-51.2,14.7-30.3,9.2-68.8-12.8-94.1-18.5-22-48.4-33.7-76.9-30.4h0Z"/>
        <path fill="#7F56D9" d="M147.3,400.5c3-10.1,16-15,24.7-8.8,10.2,6.5,9,21.3,3.1,30.3-7.1,11.6-22.9,16.3-35.2,10.8-4.9-2.3-10.8-2.3-14.8,1.7-1.2-4.3,2.5-8.1,6.5-8.8,6.3-1.3,11.7,3.2,17.8,3.7,12.8,1.5,25-10.5,24.3-23.1-.2-5.5-4.4-11-10.2-11.1-5.2-.3-8.7,4-11.6,7.6,1.9,2.2,4,4.4,5,7.2,1.4,3.3-3.2,7.2-6.2,5.2-1.2-1.3-.3-3.3-.3-4.8-3.2-5.4-11.4-4.8-15-.2-2.6,2.9-2.5,7-3,10.6-8.6,1.4-15.6,9.5-13,18.4-1.8.7-3.6,1.4-5.5,2-2.9-8.6.6-19.4,9.3-23.2,4.7-1.4,3.7-7.4,6.5-10.6,3.7-5.9,11.2-7.7,17.7-6.8h-.1Z"/>
        <path fill="#7F56D9" d="M196.7,389.6c8.5-2.7,17.9,2.5,20.9,10.7,10.3-2,18.8,6,21.2,15.4,9.7,4.6,15.7,15.7,12,26.3-1.8-.9-3.6-1.8-5.4-2.7,2.2-8.8-4-17.5-12.9-18.6-.2-5.9-2.7-13-9.2-14.3-5.4-1.5-10.4,3.7-9.1,9-2.7.6-6-.6-6.4-3.6,0-3.7,2.7-6.6,4.8-9.4-3.4-7.2-14.2-10.4-19.1-3-6.9,11.9,3.6,27.2,16.1,29.5,6.7,1.8,12.8-1.8,19.1-3.3,5-1.1,12.3,1.9,11.6,8-9.4-6.7-19,2.9-29.1,1.3-13.9-1-25.9-13.7-25.7-27.7-.5-7.5,3.6-15.5,11.2-17.6h0Z"/>
        <path fill="#7F56D9" d="M158.7,404.1c3.6-5.4,10.2,0,9.6,5.1-.2,12.5-15.4,20.6-26.1,14.2-5.5-1.5-6.8-10.6-.7-12.2,1.2,3.2,2,7.3,5.8,8.3,8.5,3.7,20.3-8.3,11.4-15.3h0Z"/>
        <path fill="#7F56D9" d="M196.4,409.2c-.9-5.1,5.2-10.4,9.5-6-.6,2.4-2.5,4.1-3.6,6.2.9,6.9,9.3,12.5,15.9,9.8,3.1-1.2,3.5-4.7,4.1-7.5,6.4-.5,6.3,8.7,1.5,10.9-10.5,7.2-26.8-.5-27.4-13.4Z"/>
        <path fill="#7F56D9" d="M42.3,429c7.4,12.3,18.7,22.9,33,26.3,0,3.7,0,7.4-.2,11-16.2-6.2-28.9-20.4-32.8-37.3Z"/>
        <path fill="#7F56D9" d="M170.2,432.4c1.3-1.1,2.6-2.2,4-3.3,6.9,7.3,6.7,18.5,1.6,26.8,2.9,3.5,2.6,8.1,2.4,12.4-5.2-2.7-6.1-8.8-10.5-12.3,2.7-3.6,6-7.1,6.5-11.8.6-4.3-2.1-8.1-3.9-11.8h-.1Z"/>
        <path fill="#7F56D9" d="M188.8,455.2c-4.8-8.3-4.8-19.2,1.7-26.6,1.6,1.2,3.1,2.4,4.7,3.7-3.1,4.1-5.7,9.5-3.6,14.7.9,3.6,5,5.8,5.7,9.1-4,3.7-5.6,9.2-10.2,12.4-1-4.5-.4-9.1,1.8-13.2h-.1q0-.1,0-.1Z"/>
        <path fill="#7F56D9" d="M289.5,455.6c13.8-3.6,24.9-13.6,32.4-25.4-3.4,16.9-16.6,29.9-32.2,36.3,0-3.6-.1-7.2-.2-10.8h0q0-.1,0-.1Z"/>
        <path fill="#7F56D9" d="M131.9,434.4c2.6.2,6.8,1.1,5.2,4.7-3.1,10.2-16.5,6.3-22.7,13.2-6.6,5.5-7.4,15.9-1.2,22.1-1,2.1-2.2,4.1-3.4,6-8.3-8.3-8.9-22.8-.6-31.4,5.3-6.4,14-7,21.2-9.7.5-1.6,1-3.2,1.5-4.8h0Z"/>
        <path fill="#7F56D9" d="M227.2,436.1c1.8-.8,3.7-1.3,5.6-1.5.9,2.6,1.8,6,5.2,6.1,9.7,1.6,19.6,7.2,23,16.9,3.1,7.9.4,17.4-6.3,22.6-1-1.9-1.9-3.7-2.8-5.6,9.9-9.5.3-25.7-11.7-27.2-6.3-.2-13.3-4.1-12.9-11.3h-.1Z"/>
        <path fill="#7F56D9" d="M162.7,436.5c1.3-.6,2.5-1.1,3.8-1.7,6.6,5.5,2.3,17.3-6.1,17.8-4,.7-5.6-4.1-4.7-7.2-2.7,1.9-5.6,3.5-8.6,4.8v6.1c-4.4-2.2-11.2.5-13.6-4.7,6.1-1.7,9.4-6.9,8.2-13.2,1.4.1,2.7.2,4.1.3.5,1.8.9,3.7,1.5,5.5,3.3-2.1,6.8-6.4,11.1-3.8-.2,1.8-.4,3.5-.6,5.2,5.9,3.3,8.2-5.4,4.9-9.1h0Z"/>
        <path fill="#7F56D9" d="M204.4,452.6c-8.3-.5-12.5-12.4-6-17.9,1.1.5,2.1,1,3.2,1.5-2.3,3.6-1.9,10.8,3.7,10.1.4-2.2-.5-5.1,1.5-6.7,4.3-1.2,7.4,2.5,10.7,4.5.4-1.9.8-3.7,1.2-5.6,1.2-.3,2.4-.6,3.6-.9.3,2.7.5,5.5,1.2,8.2.6,3.3,4.8,3.2,6.8,5.4.5,3-3,3.3-5.1,3.3-2.7-.2-5,2.9-7.7,1.4-.7-1.9.2-3.9.3-5.8-2.7-1.4-5.3-2.8-7.9-4.4-.8,2.9-2,6.9-5.6,6.9h.1Z"/>
        <path fill="#7F56D9" d="M119.5,453.5c1.7-1,3.5-1.7,5.4-2.2,2.3,4,5.2,8.1,9.8,9.8,5.9,2.5,11.9-1.1,17.7-2.4-.5-1.8-.9-3.7-1-5.6,5.7,3.1,11.1,7,16.8,10.3-1.1,1.6-2.4,3.1-3.6,4.6-9.1-8.5-20,2.7-30.1-.7-7.2-1.4-11.9-7.6-14.9-13.8h0,0Z"/>
        <path fill="#7F56D9" d="M239.5,451.2c2.1.8,4.2,1.6,6.2,2.6-3.4,5-6.9,10.5-12.8,12.9-6.6,2.9-14,.7-20.4-1.8-4.3-2.1-8.5.8-12.3,2.6-1.1-1.4-2.2-2.9-3.2-4.3,4.4-3.1,9.5-4.9,13-9.2,3.5-2.7,3.2,2.1,2.1,4.2,5.4,2.1,11.2,5,17.1,3,5-1.2,7.9-5.8,10.3-10h0Z"/>
        <path fill="#7F56D9" d="M241.8,470.4c0-3.4,2.2-9.3,6.6-7.2-.3,4.2-1.6,8.7.3,12.7,2.4,5.5,6.8,10.2,7.3,16.4.4,7.5-3.5,15.9-11.1,18.3-5.2,1-11.7,1.2-15.2-3.7-5-4.6-3.6-16,4.4-15.7.6.8,1.3,1.6,1.9,2.4-2.5,2.6-5.4,6.9-2.1,10.1,6,5.2,15.1-.7,16.2-7.7,2-9.9-9.5-15.9-8.4-25.6h.1Z"/>
        <path fill="#7F56D9" d="M117.6,464.5c.4-.2,1.3-.7,1.7-.9,6.4,4.6,3.4,13.9-.7,19-4.8,6-5.8,16.5,1.3,21.2,4.6,3.7,11.8,1.4,13-4.5-1.3-1.9-2.7-3.8-4.1-5.5,2.1-3.8,6.9-1.3,8.2,1.8,2.8,6.1-1.6,13.6-7.8,15.3-9.9,3.4-20.9-6.4-19.6-16.6-1.8-11.1,11-18.4,8-29.8h0Z"/>
        <path fill="#7F56D9" d="M167.4,470.9c1-1.4,2.1-2.8,3.1-4.2,9.4,4.7,10.6,16.6,5.6,24.9-1.7-1.6-3.3-3.4-4.8-5.1,4.7-5.3.5-11.7-3.9-15.6h0Z"/>
        <path fill="#7F56D9" d="M188.8,491.4c-5-8.2-3.4-20,5.8-24.5,1.1,1.3,2.1,2.7,3.2,4.1-4.9,3.8-8,10.2-4.5,16.1-1.5,1.4-3,2.9-4.5,4.3h0Z"/>
        <path fill="#7F56D9" d="M151.6,469.5c4.3-2.2,8.8.7,11.9,3.6-2,2-3.8,4.3-6.3,5.8-4.2,1-7.2-2.8-11.1-3.4-2.6-1-6.4-.3-7.8-3.2,4.5-.6,9.2-.8,13.4-2.9h-.1q0,.1,0,.1Z"/>
        <path fill="#7F56D9" d="M127.1,469.5c2.5,1,5,2,7.4,3.3-2.4,1.3-4.9,2.2-7.5,3.1v-6.4h0Z"/>
        <path fill="#7F56D9" d="M203.2,471.5c2.7-2.2,6.5-3.5,9.7-1.6,4.1,2.6,9.1,2.1,13.7,2.8-3.4,4.2-10.1,2.5-14.9,3.7-.3.7-.8,2.1-1,2.8-5.2,1.1-5.7-4.3-7.5-7.7h0Z"/>
        <path fill="#7F56D9" d="M231.4,474c0-2.7,4.1-2.7,5.9-4.1.2,2,.4,4,.7,6-2.2-.6-4.5-1.1-6.6-1.9h0Z"/>
        <path fill="#7F56D9" d="M120,489.6c2.8-7.5,10.9-13,19-11.8,6.3.6,11.2,5.4,17.5,6.1,4.5-.4,7.8-3.7,11.1-6.4,3.4,3.4-.5,7.3-3.4,9.3-3.6,2.9-8.4,2.1-12.6,1.8-5.1-.2-8.7-5.4-14-4.8-4.9.5-9.9,2.9-12.4,7.3-1.2,3.5,1.7,6.4,2.6,9.7-6.4,1.3-9.4-6.1-7.6-11.2h-.2Z"/>
        <path fill="#7F56D9" d="M195.5,481.2c.9-1,1.8-2.1,2.6-3.1,3.8,2.8,8,6.7,13.2,5.6,5.4-1.6,10.1-5.5,16-5.3,9.1-1,18.6,6.5,18.4,16,0,4.3-4.3,7.8-8.4,6.2,1.2-3,3.9-6,2.5-9.3-3.7-6.5-13.6-9.5-19.5-4,2,.7,4,1.4,6,2.1-1.4,2.5-3,5-4.7,7.4-1.3-2.7-2.6-5.3-4-7.9-7.8.7-18.5,1.3-22-7.5v-.2q-.1,0-.1,0Z"/>
        <path fill="#7F56D9" d="M137.7,489c3-.4,6.1-.3,9.2.1-1.2,2.6-2.4,5.2-3.8,7.8-1.7-2.7-3.3-5.5-5.4-7.9h0Z"/>
        <path fill="#7F56D9" d="M162.4,492.9c1.8-1.2,3.6-2.5,5.3-3.8,4.6,3.2,9.5,7.4,10.4,13.2.5,5.8-3.6,10.6-7.8,14.1-1-1.3-2-2.6-2.9-3.9,2.3-2.4,4.2-5.2,5.6-8.2-1.9-5.1-5.8-8.9-10.5-11.4h-.1Z"/>
        <path fill="#7F56D9" d="M187.1,505.8c-1.4-7.2,4.4-13.2,10-16.6,1.5,1.1,3,2.2,4.5,3.3-3.7,3-8.1,6-9.6,10.9,0,3.7,3.5,6,5.9,8.3-1,1.7-2.1,3.4-3.2,5.2-3.3-3.1-7.1-6.3-7.7-11h.1q0-.1,0,0Z"/>
        <path fill="#7F56D9" d="M151.3,493.2c.8,0,2.2,0,3,.1.5,7.1,9.9,3.8,12.9,9.1,2.3,2.2.5,5.1-1.6,6.7-4.6-6.7-15-6.5-19.9-.6-2.5,2.8-1.8,6.7-1.9,10.1-4.8,2-6.3-3.5-7.4-6.9,1.4-.9,2.8-1.7,4.1-2.5.5-2.5,1-5,1.5-7.4,2.5-.7,5-1.5,7.5-2.5.4-2.1,1-4.1,1.8-6h0q0-.1,0-.1Z"/>
        <path fill="#7F56D9" d="M211.1,493.5c1.1,0,2.2-.2,3.3-.2-.2,5.4,3.5,7.9,8.4,8.5.2,4.1,1.4,8.3,5.7,9.9-.8,3.8-2.8,8.4-7.5,7,.3-3.8,1-8.1-1.9-11.1-5.3-5.6-14.9-5.1-19.8.8-1-1.3-2.4-2.4-2.6-4,2.4-4.7,8-6.3,12.9-7.1.5-1.2,1.1-2.5,1.6-3.7h-.1q0-.1,0,0Z"/>
        <path fill="#7F56D9" d="M148.6,516.2c-1-5.9,6.3-8.5,10.8-6,4.7,2.7,7.9,7.9,8.4,13.2.3,4-3.3,9-7.7,7.1-2-3.8,5-6.9,1.8-10.7-2.2-5.5-8.6-5.7-13.3-3.6h0Z"/>
        <path fill="#7F56D9" d="M198.7,529c-4.3-8.4,3.4-22.2,13.6-19.6,3.5.8,4.1,4.8,3.1,7.7-5.2-5.3-12.5-.7-13.3,5.8,1.5,2.1,2.9,4.4,3.4,7-2.2.8-5.5,1.8-6.8-1h0Z"/>
        <path fill="#7F56D9" d="M125.4,515c1.6-.2,3.3-.4,4.9-.5,2.3,6.5,8.8,11.9,16,9.8,4.5-.7,8.4-9.8,12-3-4.2,8.1-15.4,12.1-23.4,7.4-5.3-2.6-8.5-8-9.6-13.7,0,0,0,0,0,0Z"/>
        <path fill="#7F56D9" d="M234.1,514.5c1.8,0,3.5.2,5.3.4-.8,8.2-7.9,15.3-16.2,15.8-7,1-13.5-3.6-16.9-9.5,1.4-3.2,4.8-3.6,6.7-.5,6.4,7.9,19.2,3,21.2-6.2h-.1Z"/>
        <path fill="#7F56D9" d="M172.6,519.7c1.5-1.6,3-3.1,4.4-4.6,4.3,9.2,2.4,22.7-7.9,26.8-8.2,3.7-17.9-1.1-20.8-9.4,1.4-.6,2.8-1.3,4.2-1.9,2.9,4.4,8.3,7.8,13.7,5.9,6.9-2.1,9-10.7,6.4-16.8h0Z"/>
        <path fill="#7F56D9" d="M187.6,515c1.6,1.5,3.1,3,4.7,4.5-2.3,5.7-1.3,13.2,4.5,16.4,5.6,3.1,12.4-.3,15.1-5.6,1.5.7,3,1.5,4.6,2.2-2.6,11.5-19.8,14.4-26.7,5.3-5.3-6.3-4.7-15.4-2.2-22.8h0Z"/>
      </g>
    </g>
  </g>
</svg>